TITLE ""
FILE "1Q_t_0119-0128.mp3" MP3
  TRACK 01 AUDIO
    TITLE "1Q_t_0119-0128_01"
    INDEX 01 00:00:00
  TRACK 02 AUDIO
    TITLE "1Q_t_0119-0128_02"
    INDEX 01 00:01:08
  TRACK 03 AUDIO
    TITLE "1Q_t_0119-0128_03"
    INDEX 01 00:01:63
  TRACK 04 AUDIO
    TITLE "1Q_t_0119-0128_04"
    INDEX 01 00:03:05
  TRACK 05 AUDIO
    TITLE "1Q_t_0119-0128_05"
    INDEX 01 00:03:22
  TRACK 06 AUDIO
    TITLE "1Q_t_0119-0128_06"
    INDEX 01 00:04:22
  TRACK 07 AUDIO
    TITLE "1Q_t_0119-0128_07"
    INDEX 01 00:04:37
  TRACK 08 AUDIO
    TITLE "1Q_t_0119-0128_08"
    INDEX 01 00:09:62
  TRACK 09 AUDIO
    TITLE "1Q_t_0119-0128_09"
    INDEX 01 00:10:40
  TRACK 10 AUDIO
    TITLE "1Q_t_0119-0128_10"
    INDEX 01 00:11:47
  TRACK 11 AUDIO
    TITLE "1Q_t_0119-0128_11"
    INDEX 01 00:11:65
  TRACK 12 AUDIO
    TITLE "1Q_t_0119-0128_12"
    INDEX 01 00:16:13
  TRACK 13 AUDIO
    TITLE "1Q_t_0119-0128_13"
    INDEX 01 00:16:29
  TRACK 14 AUDIO
    TITLE "1Q_t_0119-0128_14"
    INDEX 01 00:21:48
  TRACK 15 AUDIO
    TITLE "1Q_t_0119-0128_15"
    INDEX 01 00:22:26
  TRACK 16 AUDIO
    TITLE "1Q_t_0119-0128_16"
    INDEX 01 00:23:35
  TRACK 17 AUDIO
    TITLE "1Q_t_0119-0128_17"
    INDEX 01 00:23:52
  TRACK 18 AUDIO
    TITLE "1Q_t_0119-0128_18"
    INDEX 01 00:26:18
  TRACK 19 AUDIO
    TITLE "1Q_t_0119-0128_19"
    INDEX 01 00:26:33
  TRACK 20 AUDIO
    TITLE "1Q_t_0119-0128_20"
    INDEX 01 00:31:66
  TRACK 21 AUDIO
    TITLE "1Q_t_0119-0128_21"
    INDEX 01 00:32:46
  TRACK 22 AUDIO
    TITLE "1Q_t_0119-0128_22"
    INDEX 01 00:33:70
  TRACK 23 AUDIO
    TITLE "1Q_t_0119-0128_23"
    INDEX 01 00:34:11
  TRACK 24 AUDIO
    TITLE "1Q_t_0119-0128_24"
    INDEX 01 00:37:66
  TRACK 25 AUDIO
    TITLE "1Q_t_0119-0128_25"
    INDEX 01 00:38:05
  TRACK 26 AUDIO
    TITLE "1Q_t_0119-0128_26"
    INDEX 01 00:44:41
  TRACK 27 AUDIO
    TITLE "1Q_t_0119-0128_27"
    INDEX 01 00:45:19
  TRACK 28 AUDIO
    TITLE "1Q_t_0119-0128_28"
    INDEX 01 00:46:44
  TRACK 29 AUDIO
    TITLE "1Q_t_0119-0128_29"
    INDEX 01 00:46:61
  TRACK 30 AUDIO
    TITLE "1Q_t_0119-0128_30"
    INDEX 01 00:50:14
  TRACK 31 AUDIO
    TITLE "1Q_t_0119-0128_31"
    INDEX 01 00:50:30
  TRACK 32 AUDIO
    TITLE "1Q_t_0119-0128_32"
    INDEX 01 00:56:25
  TRACK 33 AUDIO
    TITLE "1Q_t_0119-0128_33"
    INDEX 01 00:57:02
  TRACK 34 AUDIO
    TITLE "1Q_t_0119-0128_34"
    INDEX 01 00:58:37
  TRACK 35 AUDIO
    TITLE "1Q_t_0119-0128_35"
    INDEX 01 00:58:53
  TRACK 36 AUDIO
    TITLE "1Q_t_0119-0128_36"
    INDEX 01 01:00:67
  TRACK 37 AUDIO
    TITLE "1Q_t_0119-0128_37"
    INDEX 01 01:01:08
  TRACK 38 AUDIO
    TITLE "1Q_t_0119-0128_38"
    INDEX 01 01:08:43
  TRACK 39 AUDIO
    TITLE "1Q_t_0119-0128_39"
    INDEX 01 01:09:21
  TRACK 40 AUDIO
    TITLE "1Q_t_0119-0128_40"
    INDEX 01 01:10:36
  TRACK 41 AUDIO
    TITLE "1Q_t_0119-0128_41"
    INDEX 01 01:10:52
  TRACK 42 AUDIO
    TITLE "1Q_t_0119-0128_42"
    INDEX 01 01:13:25
  TRACK 43 AUDIO
    TITLE "1Q_t_0119-0128_43"
    INDEX 01 01:13:41
  TRACK 44 AUDIO
    TITLE "1Q_t_0119-0128_44"
    INDEX 01 01:21:28
  TRACK 45 AUDIO
    TITLE "1Q_t_0119-0128_45"
    INDEX 01 01:22:06
  TRACK 46 AUDIO
    TITLE "1Q_t_0119-0128_46"
    INDEX 01 01:23:10
  TRACK 47 AUDIO
    TITLE "1Q_t_0119-0128_47"
    INDEX 01 01:23:25
  TRACK 48 AUDIO
    TITLE "1Q_t_0119-0128_48"
    INDEX 01 01:26:28
  TRACK 49 AUDIO
    TITLE "1Q_t_0119-0128_49"
    INDEX 01 01:26:43
  TRACK 50 AUDIO
    TITLE "1Q_t_0119-0128_50"
    INDEX 01 01:34:09
  TRACK 51 AUDIO
    TITLE "1Q_t_0119-0128_51"
    INDEX 01 01:34:60
  TRACK 52 AUDIO
    TITLE "1Q_t_0119-0128_52"
    INDEX 01 01:36:04
  TRACK 53 AUDIO
    TITLE "1Q_t_0119-0128_53"
    INDEX 01 01:36:22
  TRACK 54 AUDIO
    TITLE "1Q_t_0119-0128_54"
    INDEX 01 01:37:37
  TRACK 55 AUDIO
    TITLE "1Q_t_0119-0128_55"
    INDEX 01 01:37:53
  TRACK 56 AUDIO
    TITLE "1Q_t_0119-0128_56"
    INDEX 01 01:43:52
  TRACK 57 AUDIO
    TITLE "1Q_t_0119-0128_57"
    INDEX 01 01:44:25
  TRACK 58 AUDIO
    TITLE "1Q_t_0119-0128_58"
    INDEX 01 01:45:60
  TRACK 59 AUDIO
    TITLE "1Q_t_0119-0128_59"
    INDEX 01 01:46:01
  TRACK 60 AUDIO
    TITLE "1Q_t_0119-0128_60"
    INDEX 01 01:47:04
  TRACK 61 AUDIO
    TITLE "1Q_t_0119-0128_61"
    INDEX 01 01:47:20
  TRACK 62 AUDIO
    TITLE "1Q_t_0119-0128_62"
    INDEX 01 01:53:26
